Coordinates
version=1
nRows=9
nColumns=24
inDegrees=yes

Units are S.I. units (second, meters, Newtons, ...)
Angles are in degrees.

endheader
time	pelvis_tilt	pelvis_list	pelvis_rotation	pelvis_tx	pelvis_ty	pelvis_tz	hip_flexion_r	hip_adduction_r	hip_rotation_r	knee_angle_r	ankle_angle_r	subtalar_angle_r	mtp_angle_r	hip_flexion_l	hip_adduction_l	hip_rotation_l	knee_angle_l	ankle_angle_l	subtalar_angle_l	mtp_angle_l	lumbar_extension	lumbar_bending	lumbar_rotation
      5.31500000	     -8.34176675	      4.47112582	      3.30851502	     -0.85564650	     -0.00338197	     -0.35296826	     26.46599535	    -10.98891415	     -9.51599937	    -64.10184080	    -14.61701703	      6.12935864	     36.74008556	     12.38590462	     10.30019183	     14.65175245	    -13.10868242	      0.59185859	     -7.85182780	      2.61000010	      6.35661678	     -7.02043625	      0.71262258
      5.32000000	     -8.26650171	      4.25683178	      3.55403024	     -0.85107963	     -0.00288394	     -0.35332608	     26.97690927	    -10.84377886	     -9.70068457	    -63.63598488	    -14.11731773	      6.34667368	     37.04275819	     11.83923286	     10.09046738	     14.96107520	    -12.84222509	      0.78789761	     -7.84152344	      2.52316806	      6.15733290	     -6.83580973	      0.25136170
      5.32500000	     -8.18031006	      4.05565212	      3.79004692	     -0.84646083	     -0.00237908	     -0.35364249	     27.45602534	    -10.70255806	     -9.86917262	    -63.10755896	    -13.65131417	      6.56400388	     37.27961264	     11.25792582	      9.87806312	     15.27282131	    -12.52986463	      0.94777093	     -7.83452241	      2.44801697	      5.96072231	     -6.66435820	     -0.17715782
      5.33000000	     -8.11310197	      3.86078288	      3.97835837	     -0.84186794	     -0.00198863	     -0.35389858	     27.96362493	    -10.54055509	     -9.98712616	    -62.54369838	    -13.19440521	      6.71434026	     37.44226642	     10.70511403	      9.65919383	     15.54851410	    -12.22179203	      1.14891122	     -7.85081855	      2.42495295	      5.79026254	     -6.48660971	     -0.51569045
      5.33500000	     -7.98631018	      3.68799380	      4.22527188	     -0.83727728	     -0.00154224	     -0.35418650	     28.36141802	    -10.42501318	    -10.14881778	    -61.91179536	    -12.71653098	      6.90864313	     37.58961566	     10.07879441	      9.46335175	     15.87062257	    -11.89927379	      1.30149369	     -7.86253605	      2.36312691	      5.54306592	     -6.34875635	     -0.95806881
      5.34000000	     -7.82905108	      3.55321685	      4.44460193	     -0.83271252	     -0.00111435	     -0.35446404	     28.72209902	    -10.33058302	    -10.26556366	    -61.23787807	    -12.25459696	      7.03469802	     37.65331743	      9.41397205	      9.29725187	     16.18049290	    -11.56230800	      1.42281988	     -7.91394808	      2.24749791	      5.25992536	     -6.22671491	     -1.37180110
      5.34500000	     -7.69577942	      3.41283569	      4.64345815	     -0.82814779	     -0.00078139	     -0.35467884	     29.10011298	    -10.21032286	    -10.35169961	    -60.52099042	    -11.79349864	      7.14163816	     37.63775252	      8.78160997	      9.11664842	     16.47354759	    -11.23384637	      1.59472139	     -7.97237312	      2.14446557	      5.01001223	     -6.09957530	     -1.73734637
      5.35000000	     -7.58507887	      3.27384308	      4.84028712	     -0.82355312	     -0.00048464	     -0.35486376	     29.48266449	    -10.08628569	    -10.42256281	    -59.75158219	    -11.36581367	      7.25235716	     37.57071123	      8.17364757	      8.92854738	     16.73620888	    -10.89992056	      1.74444128	     -7.99351666	      2.05979599	      4.79156470	     -5.97667412	     -2.09237899
      5.35500000	     -7.44404805	      3.15177791	      5.04304715	     -0.81897776	     -0.00021888	     -0.35504216	     29.81178700	     -9.97671135	    -10.48718401	    -58.93785581	    -10.91062580	      7.34952330	     37.42930356	      7.53548014	      8.75451873	     17.01574044	    -10.57251406	      1.90748619	     -8.04180905	      1.95781390	      4.53536517	     -5.86896259	     -2.46048195
